<svg width="111" height="43" viewBox="0 0 111 43" fill="none" xmlns="http://www.w3.org/2000/svg">
<g clip-path="url(#clip0_964_17564)" filter="url(#filter0_d_964_17564)">
<path d="M30.5552 3.79318L23.5866 5.25682L23.5544 27.9114C23.5544 32.0955 26.741 34.8 30.9736 34.8C33.3233 34.8 35.0454 34.3705 35.9949 33.8614V28.4841C35.0775 28.85 30.5713 30.1546 30.5713 25.9864V15.9318H35.9949V9.91818H30.5713L30.5552 3.79318ZM44.8947 12.0023L44.4602 9.91818H38.2802V34.2909H45.4097V17.8886C47.0996 15.6932 49.9482 16.1227 50.8655 16.4091V9.91818C49.8999 9.58409 46.5685 8.96364 44.8947 12.0023ZM59.7493 0.5L52.5714 2.01136V7.77045L59.7493 6.25909V0.5ZM11.2266 17.0932C11.2266 15.9955 12.16 15.5659 13.6568 15.55C15.8294 15.55 18.5975 16.2023 20.7702 17.3636V10.7136C18.4044 9.79091 16.0386 9.425 13.6729 9.425C7.8791 9.425 4.0166 12.4159 4.0166 17.4114C4.0166 25.2386 14.8799 23.9659 14.8799 27.3386C14.8799 28.6432 13.7372 29.0727 12.1439 29.0727C9.77816 29.0727 6.72035 28.1023 4.32238 26.8136V33.1773C6.97785 34.3068 9.66551 34.7841 12.1279 34.7841C18.0664 34.7841 22.1543 32.2705 22.1543 27.1796C22.1543 18.7636 11.2266 20.275 11.2266 17.0932ZM107.001 22.3909C107.001 15.1523 103.46 9.44091 96.6683 9.44091C89.8768 9.44091 85.7407 15.1523 85.7407 22.3432C85.7407 30.8545 90.6171 34.7841 97.5696 34.7841C100.981 34.7841 103.54 34.0205 105.488 32.9545V27.6409C103.54 28.6114 101.303 29.2 98.4708 29.2C95.6866 29.2 93.2404 28.2295 92.9185 24.9205H106.904C106.936 24.5545 107.001 23.075 107.001 22.3909ZM92.8541 19.7182C92.8541 16.5364 94.8336 15.2 96.6201 15.2C98.3743 15.2 100.241 16.5364 100.241 19.7182H92.8541ZM74.6843 9.44091C71.884 9.44091 70.0815 10.7455 69.0836 11.6523L68.7135 9.90227H62.4208V42.4841L69.5665 40.9886L69.5825 33.0023C70.6125 33.75 72.1414 34.7841 74.636 34.7841C79.7538 34.7841 84.421 31.0932 84.421 22.1205C84.4371 13.9114 79.7055 9.44091 74.6843 9.44091ZM72.9783 28.9296C71.3046 28.9296 70.3068 28.325 69.6147 27.5932L69.5665 17.0932C70.3068 16.2818 71.3368 15.6932 72.9783 15.6932C75.5855 15.6932 77.388 18.5886 77.388 22.2795C77.4041 26.0818 75.6338 28.9296 72.9783 28.9296ZM52.5875 34.2909H59.7654V9.91818H52.5875V34.2909Z" fill="#737373"/>
</g>
<defs>
<filter id="filter0_d_964_17564" x="0" y="0.5" width="111" height="50" filterUnits="userSpaceOnUse" color-interpolation-filters="sRGB">
<feFlood flood-opacity="0" result="BackgroundImageFix"/>
<feColorMatrix in="SourceAlpha" type="matrix" values="0 0 0 0 0 0 0 0 0 0 0 0 0 0 0 0 0 0 127 0" result="hardAlpha"/>
<feOffset dy="4"/>
<feGaussianBlur stdDeviation="2"/>
<feComposite in2="hardAlpha" operator="out"/>
<feColorMatrix type="matrix" values="0 0 0 0 0 0 0 0 0 0 0 0 0 0 0 0 0 0 0.25 0"/>
<feBlend mode="normal" in2="BackgroundImageFix" result="effect1_dropShadow_964_17564"/>
<feBlend mode="normal" in="SourceGraphic" in2="effect1_dropShadow_964_17564" result="shape"/>
</filter>
<clipPath id="clip0_964_17564">
<rect width="103" height="42" fill="white" transform="translate(4 0.5)"/>
</clipPath>
</defs>
</svg>
